<?xml version="1.0" encoding="utf-8"?>
<!-- Generator: Adobe Illustrator 24.0.2, SVG Export Plug-In . SVG Version: 6.00 Build 0)  -->
<svg version="1.1" id="Capa_1" xmlns="http://www.w3.org/2000/svg" xmlns:xlink="http://www.w3.org/1999/xlink" x="0px" y="0px"
	 viewBox="0 0 92 70" style="enable-background:new 0 0 92 70;" xml:space="preserve">
<style type="text/css">
	.st0{fill:#FFFFFF;}
	.st1{fill:#D4F2F6;}
	.st2{fill:#A6E7F0;}
	.st3{fill:#678D98;}
	.st4{fill:#537983;}
	.st5{fill:#3E5959;}
	.st6{fill:#1E293B;}
	.st7{fill:#ED0000;}
	.st8{opacity:0.2;}
</style>
<g>
	<path class="st0" d="M45.5,63.6c-15.3-0.3-27.8-12.8-28.1-28.1c-0.1-6.7,2.1-12.8,5.8-17.7c0.2-0.3,0.7-0.3,1-0.1l39.1,39.1
		c0.3,0.3,0.2,0.7-0.1,1C58.3,61.5,52.1,63.7,45.5,63.6L45.5,63.6z"/>
	<path class="st0" d="M67.8,52.3L28.7,13.2c-0.3-0.3-0.2-0.7,0.1-1C33.6,8.6,39.5,6.4,46,6.4c15.8,0,28.6,12.8,28.6,28.6
		c0,6.5-2.2,12.4-5.8,17.2C68.6,52.5,68.1,52.6,67.8,52.3L67.8,52.3z"/>
	<path class="st1" d="M55.4,54.9H36.6c-1.6,0-2.9-1.3-2.9-2.9V18c0-1.6,1.3-2.9,2.9-2.9h18.7c1.6,0,2.9,1.3,2.9,2.9v34
		C58.3,53.6,57,54.9,55.4,54.9z"/>
	<path class="st2" d="M55.4,15.1h-4.8c1.6,0,2.9,1.3,2.9,2.9v34c0,1.6-1.3,2.9-2.9,2.9h4.8c1.6,0,2.9-1.3,2.9-2.9V18
		C58.3,16.4,57,15.1,55.4,15.1L55.4,15.1z"/>
	<path class="st3" d="M55.4,54.9H36.6c-1.6,0-2.9-1.3-2.9-2.9v-3.3h24.5V52C58.3,53.6,57,54.9,55.4,54.9z"/>
	<path class="st4" d="M53.4,48.7V52c0,1.6-1.3,2.9-2.9,2.9h4.8c1.6,0,2.9-1.3,2.9-2.9v-3.3H53.4z"/>
	<path class="st5" d="M53.1,18.8h-3.4c-0.6,0-1.2,0.5-1.2,1.2c0,0.6,0.5,1.2,1.2,1.2h3.4c0.6,0,1.2-0.5,1.2-1.2
		C54.3,19.4,53.7,18.8,53.1,18.8z"/>
	<path class="st6" d="M55.4,14H36.6c-2.2,0-4,1.8-4,4v34c0,2.2,1.8,4,4,4h18.7c2.2,0,4-1.8,4-4V18C59.4,15.8,57.6,14,55.4,14z
		 M57.1,52c0,0.9-0.8,1.7-1.7,1.7H36.6c-0.9,0-1.7-0.8-1.7-1.7V18c0-0.9,0.8-1.7,1.7-1.7h18.7c0.9,0,1.7,0.8,1.7,1.7L57.1,52
		L57.1,52z"/>
	<path class="st7" d="M46,0C26.7,0,11,15.7,11,35s15.7,35,35,35s35-15.7,35-35S65.3,0,46,0z M45.5,63.6
		c-15.3-0.3-27.8-12.8-28.1-28.1c-0.1-6.7,2.1-12.8,5.8-17.7c0.2-0.3,0.7-0.3,1-0.1l39.1,39.1c0.3,0.3,0.2,0.7-0.1,1
		C58.3,61.5,52.1,63.7,45.5,63.6L45.5,63.6z M67.8,52.3L28.7,13.2c-0.3-0.3-0.2-0.7,0.1-1C33.6,8.6,39.5,6.4,46,6.4
		c15.8,0,28.6,12.8,28.6,28.6c0,6.5-2.2,12.4-5.8,17.2C68.6,52.5,68.1,52.6,67.8,52.3L67.8,52.3z"/>
	<g class="st8">
		<path class="st0" d="M46,0c-0.7,0-1.5,0-2.2,0.1C62.1,1.2,76.6,16.4,76.6,35S62.1,68.8,43.8,69.9c0.7,0,1.5,0.1,2.2,0.1
			c19.3,0,35-15.7,35-35S65.3,0,46,0z"/>
	</g>
</g>
</svg>
