<?xml version="1.0" encoding="utf-8"?>
<!-- Generator: Adobe Illustrator 24.0.2, SVG Export Plug-In . SVG Version: 6.00 Build 0)  -->
<svg version="1.1" id="Capa_1" xmlns="http://www.w3.org/2000/svg" xmlns:xlink="http://www.w3.org/1999/xlink" x="0px" y="0px"
	 viewBox="0 0 92 70" style="enable-background:new 0 0 92 70;" xml:space="preserve">
<style type="text/css">
	.st0{fill:#A3AAB4;}
	.st1{fill:#AEB4BD;}
	.st2{fill:#C5C9CF;}
	.st3{fill:#DCDEE2;}
	.st4{fill:#EBE5DD;}
	.st5{fill:#E8E9EC;}
	.st6{fill:#554431;}
	.st7{fill:#6A563D;}
</style>
<g id="Layer_7_00000010303064137043500400000006864522231954400702_">
	<ellipse class="st0" cx="43.7" cy="58.5" rx="30" ry="11.5"/>
	<ellipse class="st1" cx="43.7" cy="58.5" rx="23.1" ry="6.9"/>
	<path class="st2" d="M66.8,26.2v11.5c0,12.7-10.3,23.1-23.1,23.1S20.6,50.5,20.6,37.7V26.2H66.8z"/>
	<path class="st3" d="M47.7,60.4c11-2,19-11.5,19-22.7V26.2H28.7v11.5C28.7,48.9,36.7,58.4,47.7,60.4z"/>
	<g>
		<ellipse class="st4" cx="43.7" cy="26.2" rx="23.1" ry="6.9"/>
		<ellipse class="st4" cx="43.7" cy="26.2" rx="23.1" ry="6.9"/>
		<ellipse class="st4" cx="43.7" cy="26.2" rx="23.1" ry="6.9"/>
		<ellipse class="st5" cx="43.7" cy="26.2" rx="23.1" ry="6.9"/>
	</g>
	<path class="st6" d="M43.7,33.1c8.8,0,16.5-1.5,20.3-3.7c-4-1.9-11.7-3.3-20.3-3.3s-16.4,1.3-20.3,3.3
		C27.2,31.6,34.9,33.1,43.7,33.1L43.7,33.1z"/>
	<ellipse class="st7" cx="44.3" cy="29.6" rx="16.7" ry="2.3"/>
	<path class="st2" d="M66.8,29.6v4.6h6.9V37c0,1.7-1.3,3-3,3c0,0,0,0,0,0h-4c-0.2,1.6-0.5,3.1-1,4.6h4.6c2.8,0,5.4-1.5,6.8-3.9
		c0.7-1.2,1.1-2.7,1.1-4.1v-7L66.8,29.6z"/>
	<path class="st5" d="M40.5,7.8c0.7,0.7,0.7,1.7,0,2.4l-1.5,1.5l1.6,1.6l1.5-1.5c0.7-0.7,1.2-1.8,1.2-2.8c0-1.1-0.4-2.1-1.2-2.8
		l-0.7-0.7c-0.7-0.7-0.7-1.7,0-2.4c0,0,0,0,0,0l1.5-1.5L41.3,0l-1.5,1.5c-1.6,1.6-1.6,4.1,0,5.6c0,0,0,0,0,0L40.5,7.8z"/>
	<path class="st5" d="M52.8,10.2c0.7,0.7,0.7,1.7,0,2.4l-1.5,1.5l1.6,1.6l1.5-1.5c1.6-1.6,1.6-4.1,0-5.6c0,0,0,0,0,0l-0.7-0.7
		c-0.7-0.7-0.7-1.7,0-2.4c0,0,0,0,0,0L55.2,4l-1.6-1.6l-1.5,1.5c-1.6,1.6-1.6,4.1,0,5.6c0,0,0,0,0,0L52.8,10.2z"/>
	<path class="st5" d="M34,10.8c0.3,0.3,0.5,0.7,0.5,1.2c0,0.4-0.2,0.9-0.5,1.2l-1.5,1.5l1.6,1.6l1.5-1.5c0.7-0.7,1.2-1.8,1.2-2.8
		c0-1.1-0.4-2.1-1.2-2.8L35,8.4c-0.7-0.7-0.7-1.7,0-2.4l1.5-1.5l-1.6-1.6l-1.5,1.5c-1.6,1.6-1.6,4.1,0,5.6c0,0,0,0,0,0L34,10.8z"/>
</g>
</svg>
