<?xml version="1.0" encoding="utf-8"?>
<!-- Generator: Adobe Illustrator 24.0.2, SVG Export Plug-In . SVG Version: 6.00 Build 0)  -->
<svg version="1.1" id="Capa_1" xmlns="http://www.w3.org/2000/svg" xmlns:xlink="http://www.w3.org/1999/xlink" x="0px" y="0px"
	 viewBox="0 0 92 70" style="enable-background:new 0 0 92 70;" xml:space="preserve">
<style type="text/css">
	.st0{fill:#C8E6EB;}
	.st1{fill:#FF9D7D;}
	.st2{fill:#96575A;}
	.st3{fill:#FFB69E;}
	.st4{fill:#BE7C7D;}
	.st5{fill:#7589C7;}
	.st6{fill:#8093CF;}
	.st7{fill:#BE1423;}
	.st8{fill:#FF4F38;}
	.st9{fill:#96A5D7;}
</style>
<g>
	<g>
		<polygon class="st0" points="66.4,52.6 75.1,52.6 82.1,70 71.6,70 		"/>
		<polygon class="st0" points="49.4,52.6 58,52.6 61.5,70 51,70 		"/>
		<polygon class="st0" points="42.6,52.6 34,52.6 30.5,70 41,70 		"/>
		<polygon class="st0" points="25.6,52.6 16.9,52.6 9.9,70 20.4,70 		"/>
	</g>
	<path class="st1" d="M47.6,35c-0.3,0-0.5,0-0.8-0.1c-1.2-0.4-1.9-1.8-1.5-3l3.5-10.4c0.2-0.5,0.5-0.9,1-1.2l8.9-5.8
		c1.1-0.7,2.6-0.4,3.3,0.7c0.7,1.1,0.4,2.6-0.7,3.3l-8.3,5.4l-3.2,9.6C49.6,34.3,48.6,35,47.6,35z"/>
	<path class="st2" d="M45.4,31.8l3.5-10.4c0.2-0.5,0.5-0.9,1-1.2l8.9-5.8c1.1-0.7,2.6-0.4,3.3,0.7c0.7,1.1,0.4,2.6-0.7,3.3l-8.3,5.4
		l-3.2,9.6L45.4,31.8z"/>
	<path class="st1" d="M54.4,41.1v7.1l-2.7,11.6c-0.4,1.6,0.6,3.3,2.3,3.7c0.2,0.1,0.5,0.1,0.7,0.1c1.4,0,2.6-0.9,3-2.3l2.8-11.9
		c0.1-0.2,0.1-0.5,0.1-0.7v-7.5H54.4z"/>
	<path class="st3" d="M69.2,47.5c0-0.2,0-0.4-0.1-0.6l-1.5-5.8h-6.3l1.9,7l0.5,12.5c0.1,1.6,1.4,2.9,3,2.9c0,0,0.1,0,0.1,0
		c1.7-0.1,3-1.5,2.9-3.2L69.2,47.5z"/>
	<path class="st4" d="M66.6,15.1c-0.3-1.6-1.5-2.7-3-2.7c-1.9,0-3.2,0-5.3,0c-1.5,0-2.7,1.1-3,2.7l-4.7,25.6c-0.1,0.4,0,0.8,0.3,1.2
		c0.2,0.3,0.6,0.5,1,0.5c4,0,14.2,0,18.1,0c0.4,0,0.8-0.2,1-0.5c0.2-0.3,0.3-0.8,0.3-1.2L66.6,15.1z"/>
	<circle class="st3" cx="61" cy="5.3" r="5.3"/>
	<path class="st3" d="M70.7,32.1c-0.4,0-0.8-0.1-1.1-0.3l-8.7-4.6c-0.6-0.3-1.1-0.9-1.2-1.6l-1.9-8.8c-0.3-1.3,0.5-2.6,1.8-2.8
		c1.3-0.3,2.6,0.5,2.8,1.8l1.7,7.7l7.7,4c1.2,0.6,1.6,2.1,1,3.2C72.4,31.6,71.5,32.1,70.7,32.1z"/>
	<path class="st2" d="M69.6,31.8l-8.7-4.6c-0.6-0.3-1.1-0.9-1.2-1.6l-1.9-8.8c-0.3-1.3,0.5-2.6,1.8-2.8c1.3-0.3,2.6,0.5,2.8,1.8
		l1.7,7.7l7.7,4L69.6,31.8z"/>
	<path class="st1" d="M28.7,47.5v5l-3.2,8.1c-0.4,1.1,0.1,2.3,1.2,2.7c0.3,0.1,0.5,0.1,0.8,0.1c0.8,0,1.6-0.5,2-1.3l3.3-8.4
		c0.1-0.2,0.1-0.5,0.1-0.8v-5.4L28.7,47.5L28.7,47.5z"/>
	<path class="st3" d="M39.6,51.4c0-0.1-0.1-0.2-0.1-0.3L38,47.5h-4.6l2.2,5.1l2.4,9.3c0.2,1,1.1,1.6,2,1.6c0.2,0,0.3,0,0.5-0.1
		c1.1-0.3,1.8-1.4,1.5-2.6L39.6,51.4z"/>
	<path class="st5" d="M39.5,36.9c-0.3,0-0.5-0.2-0.8-0.3l-6.9-4.4c-0.7-0.6-0.8-1.6-0.3-2.3c0.6-0.7,1.6-0.9,2.3-0.3l6.2,3.9
		l5.4-1.8c0.9-0.3,1.8,0.2,2.1,1c0.3,0.9-0.2,1.8-1,2.1l-6.3,2.1C40,37,39.7,37,39.5,36.9z"/>
	<path class="st3" d="M47.6,32.7c-0.3-0.9-1.2-1.3-2.1-1l1,3.1C47.4,34.5,47.9,33.6,47.6,32.7z"/>
	<path class="st6" d="M37,29.9c-0.2-1.1-1.1-1.9-2.1-1.9c-1.3,0-2.2,0-3.7,0c-1,0-1.9,0.8-2.1,1.9l-3.2,17.8c-0.1,0.3,0,0.6,0.2,0.8
		s0.4,0.4,0.7,0.4c2.7,0,9.8,0,12.6,0c0.3,0,0.5-0.1,0.7-0.4c0.2-0.2,0.2-0.5,0.2-0.8L37,29.9z"/>
	<circle class="st3" cx="33.1" cy="21.8" r="4.5"/>
	<path class="st7" d="M27.9,38.6c-0.2,0-0.4,0-0.5,0l-1.8-0.1l0.1-1.4l1.8,0.1c3.7,0.2,6.8-2.5,7.1-6.2c0.1-1-0.7-1.8-1.6-1.8
		l-6.8-0.4l0.1-1.4l6.8,0.4c1.7,0.1,3,1.6,2.9,3.3C35.6,35.4,32.1,38.6,27.9,38.6z"/>
	<path class="st8" d="M28.8,39c-0.1,1.7-1.6,3-3.3,2.9c-1.7-0.1-3-1.6-2.9-3.3l0.7-10.1c0.1-1.7,1.6-3,3.3-2.9
		c1.7,0.1,3,1.6,2.9,3.3L28.8,39z"/>
	<path class="st7" d="M22.7,38.6l0.3-5l-0.9-0.1c-0.5,0-1,0.4-1,0.9l-0.2,3.1c0,0.5,0.4,1,0.9,1L22.7,38.6
		C22.7,38.6,22.7,38.6,22.7,38.6z"/>
	<path class="st3" d="M39.8,42.5c0,0.2-0.1,0.3-0.2,0.5c-0.5,0.7-1.5,0.9-2.2,0.5l-5.3-3.5c-0.4-0.3-0.7-0.8-0.7-1.3l-0.1-7.7
		c0-0.9,0.7-1.6,1.6-1.6c0.9,0,1.6,0.7,1.6,1.6l0,6.9l4.6,3C39.7,41.1,40,41.8,39.8,42.5z"/>
	<path class="st9" d="M37.4,43.4l-5.3-3.5c-0.4-0.3-0.7-0.8-0.7-1.3l-0.1-7.7c0-0.9,0.7-1.6,1.6-1.6c0.9,0,1.6,0.7,1.6,1.6l0,6.9
		l4.6,3L37.4,43.4z"/>
</g>
</svg>
