<?xml version="1.0" encoding="utf-8"?>
<!-- Generator: Adobe Illustrator 24.0.2, SVG Export Plug-In . SVG Version: 6.00 Build 0)  -->
<svg version="1.1" id="Capa_1" xmlns="http://www.w3.org/2000/svg" xmlns:xlink="http://www.w3.org/1999/xlink" x="0px" y="0px"
	 viewBox="0 0 92 70" style="enable-background:new 0 0 92 70;" xml:space="preserve">
<style type="text/css">
	.st0{fill:#ED0000;}
	.st1{fill:#E9EEF2;}
	.st2{fill:#C3C6C7;}
	.st3{fill:#DADCDE;}
</style>
<g>
	<path class="st0" d="M75,39.8L56.9,57.9H35.1L17,39.8V18.1L35.1,0h21.7L75,18.1V39.8z"/>
	<g>
		<path class="st1" d="M55.7,54.3H36.3c-0.3,0-0.6-0.1-0.9-0.4L21,39.5c-0.2-0.2-0.4-0.5-0.4-0.9V19.3c0-0.3,0.1-0.6,0.4-0.9L35.5,4
			c0.2-0.2,0.5-0.4,0.9-0.4h19.3c0.3,0,0.6,0.1,0.9,0.4L71,18.5c0.2,0.2,0.4,0.5,0.4,0.9v19.3c0,0.3-0.1,0.6-0.4,0.9L56.5,54
			C56.3,54.2,56,54.3,55.7,54.3z M36.8,51.9h18.3l13.8-13.8V19.8L55.2,6H36.8L23.1,19.8v18.3L36.8,51.9z"/>
		<path class="st1" d="M31.5,25.3c0.7,0,1.2,0.5,1.2,1.2c0,0.7,0.5,1.2,1.2,1.2s1.2-0.5,1.2-1.2c0-2-1.6-3.6-3.6-3.6
			c-2,0-3.6,1.6-3.6,3.6s1.6,3.6,3.6,3.6c0.7,0,1.2,0.5,1.2,1.2s-0.5,1.2-1.2,1.2c-0.7,0-1.2-0.5-1.2-1.2s-0.5-1.2-1.2-1.2
			s-1.2,0.5-1.2,1.2c0,2,1.6,3.6,3.6,3.6c2,0,3.6-1.6,3.6-3.6s-1.6-3.6-3.6-3.6l0,0c-0.7,0-1.2-0.5-1.2-1.2S30.9,25.3,31.5,25.3z"/>
		<path class="st1" d="M43.6,22.9h-4.8c-0.7,0-1.2,0.5-1.2,1.2c0,0.7,0.5,1.2,1.2,1.2H40v8.4c0,0.7,0.5,1.2,1.2,1.2s1.2-0.5,1.2-1.2
			v-8.4h1.2c0.7,0,1.2-0.5,1.2-1.2C44.8,23.5,44.3,22.9,43.6,22.9z"/>
		<path class="st1" d="M50.8,22.9c-2,0-3.6,1.6-3.6,3.6v4.8c0,2,1.6,3.6,3.6,3.6s3.6-1.6,3.6-3.6l0,0v-4.8
			C54.4,24.6,52.8,22.9,50.8,22.9z M52,31.4c0,0.7-0.5,1.2-1.2,1.2s-1.2-0.5-1.2-1.2v-4.8c0-0.7,0.5-1.2,1.2-1.2s1.2,0.5,1.2,1.2
			V31.4z"/>
		<path class="st1" d="M60.5,22.9h-2.4c-0.7,0-1.2,0.5-1.2,1.2v9.7c0,0.7,0.5,1.2,1.2,1.2s1.2-0.5,1.2-1.2v-3.6h1.2
			c2,0,3.6-1.6,3.6-3.6S62.5,22.9,60.5,22.9z M61.3,27.4c-0.2,0.2-0.5,0.4-0.9,0.4h-1.2v-2.4h1.2c0.7,0,1.2,0.5,1.2,1.2
			C61.7,26.9,61.6,27.2,61.3,27.4z"/>
	</g>
	<path class="st2" d="M43.6,62.8h4.8V70h-4.8V62.8z"/>
	<path class="st3" d="M40,57.9H52v4.8H40V57.9z"/>
</g>
</svg>
