<?xml version="1.0" encoding="utf-8"?>
<!-- Generator: Adobe Illustrator 24.0.2, SVG Export Plug-In . SVG Version: 6.00 Build 0)  -->
<svg version="1.1" id="Capa_1" xmlns="http://www.w3.org/2000/svg" xmlns:xlink="http://www.w3.org/1999/xlink" x="0px" y="0px"
	 viewBox="0 0 92 70" style="enable-background:new 0 0 92 70;" xml:space="preserve">
<style type="text/css">
	.st0{fill:#96CC36;}
	.st1{fill:#FFFFFF;}
	.st2{fill:#F59E0B;}
	.st3{fill:#F97316;}
	.st4{fill:#EF4444;}
</style>
<g id="Icons_00000073694519931855128590000010940892203856712578_">
	<path class="st0" d="M2.4,51.2L2.4,51.2c0.9,0,1.6-0.7,1.6-1.5C4.9,40.3,9.6,31.8,16.9,26l-4.2-4.2c-7,7.6-11.3,17.3-12,27.6
		c-0.1,0.9,0.6,1.7,1.5,1.7C2.3,51.2,2.4,51.2,2.4,51.2z"/>
	<circle class="st1" cx="37.1" cy="53.6" r="2.4"/>
	<path class="st2" d="M44.4,19.4V7.5c-10.9,0.3-21.3,4.6-29.3,12.1l4.6,4.6c5.5-3.5,11.8-5.3,18.3-5.3C40.1,18.8,42.3,19,44.4,19.4z
		"/>
	<path class="st3" d="M47.6,7.5v12.7c1.2,0.4,2.4,0.8,3.5,1.3c0.9-0.9,1.8-1.8,2.7-2.7c1.4-1.3,3.5-1.6,5.1-0.5
		c1.6,1,2.4,2.9,1.8,4.7c-0.4,1.1-0.7,2.3-1.1,3.6c1.9,1.6,3.6,3.3,5.1,5.3L77,19.6C69,12.1,58.5,7.8,47.6,7.5L47.6,7.5z"/>
	<path class="st4" d="M79.3,21.9L66.6,34.5c2.9,4.6,4.7,9.8,5.2,15.1c0.1,0.8,0.8,1.5,1.6,1.5l16.2,0c0.9,0,1.6-0.7,1.6-1.6
		c0,0,0-0.1,0-0.1C90.5,39.2,86.3,29.4,79.3,21.9L79.3,21.9z"/>
	<path class="st1" d="M57.3,21c-0.2-0.1-0.3-0.2-0.5-0.2c-0.2,0-0.4,0.1-0.6,0.3C41.5,35.4,32,45.5,29.4,49.7
		c-1.2,1.8-1.5,4.1-1,6.2c0.5,2.2,2,4.1,3.9,5.3c4,2.5,9.2,1.2,11.7-2.7c3.5-5.7,10-25.3,13.5-36.5C57.8,21.6,57.6,21.2,57.3,21
		L57.3,21z M37.1,59.3c-3.1,0-5.7-2.5-5.7-5.7s2.5-5.7,5.7-5.7c3.1,0,5.7,2.5,5.7,5.7S40.2,59.3,37.1,59.3z"/>
</g>
</svg>
