<?xml version="1.0" encoding="utf-8"?>
<!-- Generator: Adobe Illustrator 24.0.2, SVG Export Plug-In . SVG Version: 6.00 Build 0)  -->
<svg version="1.1" id="Capa_1" xmlns="http://www.w3.org/2000/svg" xmlns:xlink="http://www.w3.org/1999/xlink" x="0px" y="0px"
	 viewBox="0 0 275 368" style="enable-background:new 0 0 275 368;" xml:space="preserve">
<style type="text/css">
	.st0{fill:#E1DAD0;}
	.st1{fill:#6BBCD1;}
	.st2{fill:#8FB233;}
	.st3{fill:#8AB033;}
	.st4{fill:#D8B386;}
	.st5{fill:#DCB78B;}
	.st6{fill:#92B538;}
	.st7{fill:#F9F8F4;}
	.st8{fill:#DBB98B;}
	.st9{fill:#D6B487;}
	.st10{fill:#D5B38D;}
	.st11{fill:#8FB434;}
	.st12{fill:#FAF9F7;}
</style>
<g>
	<g>
		<rect x="-0.2" y="184.2" class="st0" width="275" height="184.1"/>
		<g>
			<path class="st1" d="M-0.2,242.2c0,0,43.5-28.9,70.6-34.7c27.2-5.8,37.6-2.9,71.7-23.3h14.8c0,0-11,30.1-86.5,39.3
				c-51.1,6.7-70.6,49.1-70.6,49.1V242.2z"/>
		</g>
		<g>
			<path class="st2" d="M100.9,257.8c2.6,18,1.6,36.3,0.2,54.4c-0.3,3.2-0.5,6.5,0.2,9.6c1.1,4.9,4.6,9,8.8,11.7s9.3,3.8,14.3,4.1
				c4.1,0.2,8.3-0.1,12.2-1.4c6.2-2.1,11.6-6.5,18.1-7.1c6.8-0.6,13.4,3.3,20.2,3.2c0.7,0,1.5-0.1,2.2-0.5c1.1-0.7,1.4-2.1,1.6-3.3
				c2.6-14.8,5-30.9-2-44.2c-1.6-3.1-3.9-6.1-7-7.7c-4.9-2.5-10.8-1.1-16.1,0.4c-5.4,1.5-10.8,3-16.2,4.5c-4.6,1.3-9.8,2.4-13.8-0.1
				c-4.2-2.7-5.2-8.4-4.9-13.4c0.4-5,1.8-10,0.8-14.9c-1-4.9-5.6-9.7-10.4-8.4c-2.2,0.6-3.9,2.2-5,4.2
				C104,248.8,99.7,250.1,100.9,257.8z"/>
		</g>
		<g>
			<path class="st3" d="M52.8,242.8c-6.5-2.8-13.8-3.8-20.6-1.8c-3.4,1-6.7,2.6-9.1,5.1c-2.3,2.4-3.9,5.4-5,8.6
				c-2.3,6.3-3.1,13.3-1.8,19.9c1.3,6.6,4.7,12.8,9.9,17.1c2.4,1.9,5.4,3.5,8.4,3c3.7-0.6,6.3-4.1,7.4-7.7c1-3.6,0.9-7.4,1.3-11.2
				c0.2-2.1,0.7-4.1,1.3-6.1c0.3-1,0.7-2,1.4-2.8c0.7-0.7,1.6-1.2,2.6-1.5c3.2-1,6.7-0.4,10,0.3s6.6,1.7,10,1.4
				c3.4-0.3,6.9-2.1,8-5.3c0.4-1.1,0.5-2.2,0.6-3.3c0.3-3.5,0.3-6.9,0.1-10.4c-0.1-2.4-0.5-5-2.2-6.6c-2.9-2.8-7.6-1.3-11.3,0.3
				C63.8,242,55.5,244,52.8,242.8z"/>
		</g>
		<polygon class="st4" points="43,289.8 43.9,319.1 67.2,318.9 65,287.9 		"/>
		<polygon class="st5" points="159.4,258.7 159.2,269.8 185.3,272.6 186.9,259.7 		"/>
		<g>
			<path class="st6" d="M123.9,215.8c-0.5,6.5-0.7,13,0.2,19.4c0.5,3.5,1.5,7.3,4.8,9c1.6,0.8,3.4,1,5.3,1c3.7,0,7.5-0.6,11-1.8
				c2.2-0.8,4.4-1.8,6.7-2c2.7-0.2,5.3,0.8,7.8,1.5c5.3,1.4,11,1.4,16.5,0.2c1.1-0.3,2.3-0.6,3.2-1.3c1.5-1.1,2-3,2.5-4.7
				c2.4-9.1,4.8-18.6,2.5-27.5c-0.2-0.9-0.5-1.9-1.1-2.6c-1.8-2.3-5.6-2.2-8.7-1.7c-4.2,0.6-8.4,1.5-12.6,2.5
				c-2.8,0.7-5.6,1.5-8.5,1.9c-8.6,1.1-17.6-1.6-25.6,1.6C127.9,211.3,124.4,209.3,123.9,215.8z"/>
		</g>
		<path class="st7" d="M197.2,184.2c0,0,9.7,61.5-3.1,90.1s3.1,94,3.1,94h6.2c0,0-13.7-61.2-2.5-93.6c11.2-32.5,3.4-90.4,3.4-90.4
			H197.2z"/>
		<rect x="236.4" y="296.8" class="st8" width="21.4" height="14.8"/>
		<rect x="235.1" y="343.3" class="st9" width="19.7" height="13.4"/>
		<path class="st10" d="M-0.2,338.6c0,0,41.4,16.3,67.2,16v13.6H-0.2V338.6z"/>
		<path class="st10" d="M-0.2,213.7c0,0,41.4-16.3,67.2-16v-13.6H-0.2V213.7z"/>
		<path class="st1" d="M-0.2,310.8c0,0,43.5,28.9,70.6,34.7s37,2.3,71.1,22.7h14.8c0,0-10.4-29.5-85.9-38.7
			c-51.1-6.7-70.6-49.1-70.6-49.1V310.8z"/>
		<g>
			<path class="st11" d="M221.1,195c-3.8,7.9-3.4,16.8-5.5,25.3c-0.6,2.6-1.6,5.1-2.4,7.7c-2.7,8.7-3.2,18.3-0.4,27
				c1.2,3.8,3.1,7.6,6.4,9.8c3.8,2.6,8.6,2.7,13.2,2.6c10.9-0.1,21.8-0.5,32.7-1.1c0.6,0,1.2-0.1,1.6-0.5c0.5-0.5,0.5-1.2,0.4-1.9
				c-0.3-5.3-0.3-10.5,0.5-15.7c0.5-3.5,1.4-7,2.1-10.5c2.5-12.7,2-25.7,1.5-38.6c0-0.7-0.1-1.4-0.5-1.9c-0.6-0.6-1.5-0.6-2.3-0.6
				c-12.9,0.5-25.9-0.5-38.6-3C230,193.6,223.7,189.8,221.1,195z"/>
		</g>
		<rect x="77.5" y="184.2" class="st12" width="15.8" height="184.1"/>
	</g>
	<g>
		<rect x="-0.2" y="0.2" class="st0" width="275" height="184.1"/>
		<g>
			<path class="st1" d="M-0.2,58.3c0,0,43.5-28.9,70.6-34.7s37.6-2.9,71.7-23.3h14.8c0,0-11,30.1-86.5,39.3
				C19.3,46.3-0.2,88.7-0.2,88.7V58.3z"/>
		</g>
		<g>
			<path class="st2" d="M100.9,73.8c2.6,18,1.6,36.3,0.2,54.4c-0.3,3.2-0.5,6.5,0.2,9.6c1.1,4.9,4.6,9,8.8,11.7s9.3,3.8,14.3,4.1
				c4.1,0.2,8.3-0.1,12.2-1.4c6.2-2.1,11.6-6.5,18.1-7.1c6.8-0.6,13.4,3.3,20.2,3.2c0.7,0,1.5-0.1,2.2-0.5c1.1-0.7,1.4-2.1,1.6-3.3
				c2.6-14.8,5-30.9-2-44.2c-1.6-3.1-3.9-6.1-7-7.7c-4.9-2.5-10.8-1.1-16.1,0.4c-5.4,1.5-10.8,3-16.2,4.5c-4.6,1.3-9.8,2.4-13.8-0.1
				c-4.2-2.7-5.2-8.4-4.9-13.4c0.4-5,1.8-10,0.8-14.9s-5.6-9.7-10.4-8.4c-2.2,0.6-3.9,2.2-5,4.2C104,64.8,99.7,66.2,100.9,73.8z"/>
		</g>
		<g>
			<path class="st3" d="M52.8,58.9c-6.5-2.8-13.8-3.8-20.6-1.8c-3.4,1-6.7,2.6-9.1,5.1c-2.3,2.4-3.9,5.4-5,8.6
				c-2.3,6.3-3.1,13.3-1.8,19.9c1.3,6.6,4.7,12.8,9.9,17.1c2.4,1.9,5.4,3.5,8.4,3c3.7-0.6,6.3-4.1,7.4-7.7c1-3.6,0.9-7.4,1.3-11.2
				c0.2-2.1,0.7-4.1,1.3-6.1c0.3-1,0.7-2,1.4-2.8c0.7-0.7,1.6-1.2,2.6-1.5c3.2-1,6.7-0.4,10,0.3c3.3,0.7,6.6,1.7,10,1.4
				c3.4-0.3,6.9-2.1,8-5.3c0.4-1.1,0.5-2.2,0.6-3.3c0.3-3.5,0.3-6.9,0.1-10.4c-0.1-2.4-0.5-5-2.2-6.6c-2.9-2.8-7.6-1.3-11.3,0.3
				C63.8,58,55.5,60,52.8,58.9z"/>
		</g>
		<polygon class="st4" points="43,105.9 43.9,135.2 67.2,135 65,104 		"/>
		<polygon class="st5" points="159.4,74.7 159.2,85.9 185.3,88.7 186.9,75.7 		"/>
		<g>
			<path class="st6" d="M123.9,31.8c-0.5,6.5-0.7,13,0.2,19.4c0.5,3.5,1.5,7.3,4.8,9c1.6,0.8,3.4,1,5.3,1c3.7,0,7.5-0.6,11-1.8
				c2.2-0.8,4.4-1.8,6.7-2c2.7-0.2,5.3,0.8,7.8,1.5c5.3,1.4,11,1.4,16.5,0.2c1.1-0.3,2.3-0.6,3.2-1.3c1.5-1.1,2-3,2.5-4.7
				c2.4-9.1,4.8-18.6,2.5-27.5c-0.2-0.9-0.5-1.9-1.1-2.6c-1.8-2.3-5.6-2.2-8.7-1.7c-4.2,0.6-8.4,1.5-12.6,2.5
				c-2.8,0.7-5.6,1.5-8.5,1.9c-8.6,1.1-17.6-1.6-25.6,1.6C127.9,27.3,124.4,25.4,123.9,31.8z"/>
		</g>
		<path class="st7" d="M197.2,0.2c0,0,9.7,61.5-3.1,90.1s3.1,94,3.1,94h6.2c0,0-13.7-61.2-2.5-93.6c11.2-32.5,3.4-90.4,3.4-90.4
			H197.2z"/>
		<rect x="236.4" y="112.9" class="st8" width="21.4" height="14.8"/>
		<rect x="235.1" y="159.3" class="st9" width="19.7" height="13.4"/>
		<path class="st10" d="M-0.2,154.7c0,0,41.4,16.3,67.2,16v13.6H-0.2V154.7z"/>
		<path class="st10" d="M-0.2,29.8c0,0,41.4-16.3,67.2-16V0.2H-0.2V29.8z"/>
		<path class="st1" d="M-0.2,126.9c0,0,43.5,28.9,70.6,34.7c27.2,5.8,37,2.3,71.1,22.7h14.8c0,0-10.4-29.5-85.9-38.7
			C19.3,138.9-0.2,96.5-0.2,96.5V126.9z"/>
		<g>
			<path class="st11" d="M221.1,11.1c-3.8,7.9-3.4,16.8-5.5,25.3c-0.6,2.6-1.6,5.1-2.4,7.7c-2.7,8.7-3.2,18.3-0.4,27
				c1.2,3.8,3.1,7.6,6.4,9.8c3.8,2.6,8.6,2.7,13.2,2.6c10.9-0.1,21.8-0.5,32.7-1.1c0.6,0,1.2-0.1,1.6-0.5c0.5-0.5,0.5-1.2,0.4-1.9
				c-0.3-5.3-0.3-10.5,0.5-15.7c0.5-3.5,1.4-7,2.1-10.5c2.5-12.7,2-25.7,1.5-38.6c0-0.7-0.1-1.4-0.5-1.9c-0.6-0.6-1.5-0.6-2.3-0.6
				c-12.9,0.5-25.9-0.5-38.6-3C230,9.6,223.7,5.8,221.1,11.1z"/>
		</g>
		<rect x="77.5" y="0.2" class="st12" width="15.8" height="184.1"/>
	</g>
</g>
</svg>
